<svg xmlns="http://www.w3.org/2000/svg" fill="none" viewBox="0 2 164.61 38.8">
  <path d="M143.002 21.4c0-6.157 4.647-10.455 10.804-10.455S164.61 15.3 164.61 21.4c0 6.04-4.647 10.455-10.804 10.455s-10.804-4.414-10.804-10.455zm15.451 0c0-2.904-1.801-4.995-4.647-4.995s-4.647 2.09-4.647 4.995c0 2.904 1.801 4.995 4.647 4.995s4.647-2.09 4.647-4.995zm-19.574-4.88c.406.814.58 1.685.58 2.615 0 2.265-1.161 4.24-3.02 5.866 2.556 1.278 4.066 4.182 4.066 7.028 0 5.286-4.24 8.771-10.688 8.771-6.447 0-10.687-3.485-10.687-8.77 0-2.847 1.51-5.751 4.066-7.029-1.917-1.626-3.02-3.601-3.02-5.866 0-4.589 3.601-8.016 9.293-8.016 3.369 0 4.356.581 6.273.581 1.278 0 2.149-.174 3.717-.987.523-.29.93-.407 1.278-.407.755 0 1.162.755 1.162 1.743.058 1.974-.871 3.717-3.02 4.472zm-4.357 15.335c0-2.381-1.8-4.008-4.646-4.008-2.847 0-4.647 1.627-4.647 4.008 0 2.265 1.975 4.008 4.647 4.008 2.613 0 4.646-1.8 4.646-4.008zm-8.364-12.372c0 1.975 1.685 3.601 3.718 3.601 2.091 0 3.717-1.626 3.717-3.6 0-2.15-1.51-3.602-3.717-3.602-2.208.058-3.718 1.452-3.718 3.601zm-9.816 2.265v7.32c0 1.393-.523 2.032-2.033 2.032h-2.033c-1.51 0-2.033-.58-2.033-2.033v-7.144c0-1.8-.29-3.079-.929-3.95-.697-.871-1.743-1.336-3.079-1.336-1.277 0-2.439.465-3.194 1.336-.697.813-1.162 2.15-1.162 3.892v7.144c0 1.51-.581 2.033-2.033 2.033h-2.033c-1.394 0-2.033-.523-2.033-2.033V12.571c0-.93.465-1.394 1.162-1.394 1.046 0 2.498.872 3.601 2.556 1.627-1.917 4.124-2.904 6.564-2.904 2.962 0 5.343 1.045 6.912 2.846 1.568 1.917 2.323 4.24 2.323 8.073zM84.628 5.311c0-1.859 1.51-3.311 3.485-3.311 1.859 0 3.485 1.452 3.485 3.31 0 1.801-1.626 3.312-3.485 3.312-1.975 0-3.485-1.51-3.485-3.311zm.407 23.756V13.733c0-1.394.523-2.033 2.033-2.033H89.1c1.51 0 2.033.58 2.033 2.033v15.392c0 1.394-.523 2.033-2.033 2.033h-2.033c-1.452-.058-2.033-.639-2.033-2.09zm-10.688 0V9.783c0-4.82 2.73-7.609 4.938-7.609.697 0 1.161.465 1.161 1.394v25.557c0 1.51-.58 2.033-2.033 2.033H76.38c-1.452-.058-2.033-.58-2.033-2.09zM49.197 21.4c0-6.157 4.647-10.455 10.804-10.455S70.804 15.3 70.804 21.4c0 6.04-4.647 10.455-10.803 10.455-6.157 0-10.804-4.414-10.804-10.455zm15.45 0c0-2.904-1.8-4.995-4.646-4.995s-4.647 2.09-4.647 4.995c0 2.904 1.8 4.995 4.647 4.995 2.846 0 4.646-2.09 4.646-4.995zM46.06 13.733V30.17c0 .929-.464 1.394-1.161 1.394-1.046 0-2.498-.872-3.543-2.498-1.51 1.8-3.834 2.904-6.448 2.904-2.613 0-4.704-.93-6.273-2.381-1.8-1.743-2.788-4.473-2.788-8.364v-7.493c0-1.394.523-2.033 2.033-2.033h2.033c1.51 0 2.033.58 2.033 2.033v6.912c0 2.323.407 3.601 1.162 4.414.639.697 1.568 1.046 2.73 1.046 1.161 0 2.265-.465 2.904-1.22.755-.813 1.162-2.15 1.162-4.066v-7.086c0-1.51.58-2.033 2.032-2.033h2.033c1.51 0 2.091.523 2.091 2.033zM21.723 3.51v26.603c0 .929-.464 1.394-1.161 1.394-1.046 0-2.498-.872-3.543-2.498-1.278 1.51-3.892 2.846-6.912 2.846C4.066 31.855 0 27.383 0 21.4c0-5.925 4.124-10.455 10.107-10.455 2.207 0 4.123.697 5.576 1.684V9.783c0-4.82 2.73-7.609 4.937-7.609.697 0 1.103.465 1.103 1.336zM15.625 21.4c0-3.02-2.091-4.995-4.705-4.995-2.672 0-4.763 1.975-4.763 4.995s2.09 4.995 4.763 4.995c2.614 0 4.705-1.975 4.705-4.995z" fill="#000"/>
</svg>